Coordinates
version=1
nRows=15
nColumns=42
inDegrees=yes

Units are S.I. units (second, meters, Newtons, ...)
If the header above contains a line with 'inDegrees', this indicates whether rotational values are in degrees (yes) or radians (no).

endheader
time	pelvis_tilt	pelvis_list	pelvis_rotation	pelvis_tx	pelvis_ty	pelvis_tz	hip_flexion_r	hip_adduction_r	hip_rotation_r	knee_angle_r	knee_adduction_r	knee_angle_r_beta	ankle_angle_r	subtalar_angle_r	mtp_angle_r	hip_flexion_l	hip_adduction_l	hip_rotation_l	knee_angle_l	knee_adduction_l	knee_angle_l_beta	ankle_angle_l	subtalar_angle_l	mtp_angle_l	lumbar_extension	lumbar_bending	lumbar_rotation	arm_flex_r	arm_add_r	arm_rot_r	elbow_flex_r	pro_sup_r	wrist_flex_r	wrist_dev_r	arm_flex_l	arm_add_l	arm_rot_l	elbow_flex_l	pro_sup_l	wrist_flex_l	wrist_dev_l
      1.75000000	     14.36499048	      4.91575234	      2.71469830	      0.21745910	      0.94211910	     -0.24079025	    -16.35219999	      4.21737962	    -17.01991469	      8.16810834	     -3.77725028	      0.14256038	     18.23089942	     12.34822741	     -7.54817224	      8.73744976	      4.32589151	     -9.12486802	     46.70129141	     -3.80869118	      0.81509130	     16.09974613	     -1.20633919	     -7.54817224	    -44.03824613	     -2.66817873	      1.25194625	      4.99515256	    -11.38610559	      4.33225782	     41.23473427	     90.00000001	      0.00000000	      0.00000000	     -2.94198883	    -10.51194047	     14.89239111	     47.28423408	     90.00000001	      0.00000000	      0.00000000
      1.76000000	     14.34141928	      4.93872129	      2.82093589	      0.22300029	      0.94193956	     -0.24080874	    -17.20039970	      4.26150378	    -17.19698188	      7.26891512	     -3.55782214	      0.12686650	     18.08564450	     12.95854608	     -7.54691285	      9.24898897	      4.64575065	     -9.22419034	     44.64390469	     -3.87441337	      0.77918313	     15.75078742	     -0.37852785	     -7.54691285	    -44.07030092	     -2.69816036	      1.25205480	      4.97721277	    -11.44720967	      4.42933478	     41.35915266	     90.00000001	      0.00000000	      0.00000000	     -3.00080946	    -10.42700961	     14.72219570	     47.30083726	     90.00000001	      0.00000000	      0.00000000
      1.77000000	     14.27118891	      4.92057334	      2.92484199	      0.22836164	      0.94163101	     -0.24080515	    -17.96574060	      4.37879642	    -17.38896403	      6.36552267	     -3.40871946	      0.11109933	     17.97003460	     13.50629369	     -7.54584296	      9.79486773	      4.97462446	     -9.31307699	     42.52205924	     -4.02986598	      0.74214994	     15.32954625	      0.42110704	     -7.54584296	    -44.09284355	     -2.70188391	      1.24397265	      5.04321188	    -11.50230537	      4.52501824	     41.49139715	     90.00000001	      0.00000000	      0.00000000	     -3.05995877	    -10.34715596	     14.60388462	     47.27273632	     90.00000001	      0.00000000	      0.00000000
      1.78000000	     13.86507387	      4.61151984	      3.07629959	      0.23345817	      0.94029490	     -0.24065470	    -18.01860753	      4.79733898	    -17.79493060	      6.06325926	     -3.36913635	      0.10582384	     18.05470933	     13.50504896	     -7.54534259	     10.99169587	      4.79701204	     -9.55310071	     40.96614553	     -4.00160329	      0.71499412	     15.10102204	      0.63793580	     -7.54534259	    -43.72626190	     -2.45527444	      1.43083916	      5.04283142	    -11.57424367	      4.55903395	     41.60451943	     90.00000001	      0.00000000	      0.00000000	     -3.16140770	    -10.27008425	     14.57331824	     47.33567506	     90.00000001	      0.00000000	      0.00000000
      1.79000000	     14.20743881	      4.92248540	      3.17059129	      0.23931975	      0.94084749	     -0.24111874	    -19.60936266	      4.53626097	    -17.73492863	      4.63347427	     -3.01084636	      0.08086938	     17.68140485	     14.52615217	     -7.54411150	     10.53805872	      5.69317726	     -9.93635551	     37.82256929	     -4.55773934	      0.66012837	     14.37815452	      2.25774050	     -7.54411150	    -44.17709857	     -2.69920079	      1.17283052	      5.07490461	    -11.61067575	      4.75001712	     41.76558150	     90.00000001	      0.00000000	      0.00000000	     -3.20867228	    -10.23993343	     14.39427223	     47.34389548	     90.00000001	      0.00000000	      0.00000000
      1.80000000	     14.05773906	      4.84368473	      3.39309363	      0.24471896	      0.94004936	     -0.24144416	    -20.27639374	      4.76023628	    -17.88391333	      3.78451327	     -2.89953286	      0.06605222	     17.63607304	     15.01807945	     -7.54343453	     11.04128267	      5.97180000	    -10.19641889	     35.51565998	     -4.80096046	      0.61986520	     13.88501277	      3.14483348	     -7.54343453	    -44.08974194	     -2.58164358	      1.13556036	      5.09965838	    -11.65510485	      4.85645994	     41.80698294	     90.00000001	      0.00000000	      0.00000000	     -3.23264139	    -10.16499663	     14.36278185	     47.23816405	     90.00000001	      0.00000000	      0.00000000
      1.81000000	     14.05227001	      4.83820843	      3.51758268	      0.25028039	      0.93947552	     -0.24175670	    -21.10398033	      4.79231912	    -18.10173068	      3.02151195	     -2.61467311	      0.05273533	     17.55155197	     15.49539967	     -7.54264185	     11.20196576	      6.32475320	    -10.79478851	     32.92001975	     -5.14317554	      0.57456273	     13.42276631	      4.35226711	     -7.54264185	    -44.15997283	     -2.56837394	      1.08154389	      5.10955880	    -11.70650262	      4.97469675	     41.91135010	     90.00000001	      0.00000000	      0.00000000	     -3.32764118	    -10.14025205	     14.30113108	     47.26950698	     90.00000001	      0.00000000	      0.00000000
      1.82000000	     13.99116118	      4.78654297	      3.69739598	      0.25581480	      0.93863085	     -0.24218009	    -21.79092748	      4.89966557	    -18.42212361	      2.40605111	     -2.39404905	      0.04199351	     17.61117275	     15.95011897	     -7.54181951	     11.44165118	      6.62944775	    -11.51577582	     30.40278919	     -5.53034521	      0.53062877	     13.06669944	      5.74298869	     -7.54181951	    -44.15785043	     -2.48567531	      1.01919476	      5.13323012	    -11.74740531	      5.10201225	     41.99558047	     90.00000001	      0.00000000	      0.00000000	     -3.41242458	    -10.09573811	     14.28531276	     47.27931979	     90.00000001	      0.00000000	      0.00000000
      1.83000000	     13.94874328	      4.70353832	      3.88898256	      0.26138713	      0.93767950	     -0.24271049	    -22.41016652	      4.99362575	    -18.93401462	      1.99056042	     -2.11994924	      0.03474183	     17.79900590	     16.53844453	     -7.54071012	     11.65157944	      6.89492331	    -12.56277087	     27.92458700	     -6.02783396	      0.48737599	     12.88122145	      7.59108764	     -7.54071012	    -44.17609515	     -2.36075971	      0.95366210	      5.14221619	    -11.80758683	      5.22974181	     42.08117722	     90.00000001	      0.00000000	      0.00000000	     -3.50951904	    -10.07681598	     14.28371883	     47.33669963	     90.00000001	      0.00000000	      0.00000000
      1.84000000	     13.81885022	      4.51559614	      4.11485473	      0.26707944	      0.93625215	     -0.24316703	    -22.80542302	      5.20907912	    -19.87118750	      1.77504502	     -1.93205972	      0.03098038	     18.27209707	     17.82525392	     -7.53775293	     12.14838964	      6.92100717	    -14.28820097	     25.86820175	     -6.62591916	      0.45148529	     13.10245159	     10.57935038	     -7.53775293	    -44.06039402	     -2.15307949	      0.94079799	      5.10552853	    -11.85778024	      5.37723209	     42.15809445	     90.00000001	      0.00000000	      0.00000000	     -3.63312311	    -10.05855086	     14.32794630	     47.37830109	     90.00000001	      0.00000000	      0.00000000
      1.85000000	     13.52330967	      4.27241922	      4.47325247	      0.27237373	      0.93452756	     -0.24390904	    -23.03578822	      5.61759189	    -20.19999728	      1.45343032	     -1.91167129	      0.02536714	     18.52371301	     18.09642359	     -7.53743477	     12.76053243	      7.04207659	    -15.01061819	     23.84855186	     -6.91426951	      0.41623575	     12.96657031	     11.59019740	     -7.53743477	    -43.81484838	     -1.82795570	      0.88208936	      5.12943650	    -11.87882961	      5.43092106	     42.11573329	     90.00000001	      0.00000000	      0.00000000	     -3.68092943	    -10.01506266	     14.37902496	     47.34086465	     90.00000001	      0.00000000	      0.00000000
      1.86000000	     13.56643374	      4.10530856	      4.63581864	      0.27841150	      0.93317062	     -0.24434341	    -23.60606837	      5.73510710	    -21.10875289	      1.38283056	     -1.57720812	      0.02413495	     19.06401599	     19.24496506	     -7.53480282	     13.07242026	      6.87628120	    -17.86751743	     22.08497997	     -7.44967853	      0.38545562	     13.47884105	     16.39157555	     -7.53480282	    -43.84516759	     -1.66929375	      0.82913408	      5.11334513	    -11.89947075	      5.56884610	     42.18118401	     90.00000001	      0.00000000	      0.00000000	     -3.84999669	    -10.04309808	     14.47140962	     47.38169049	     90.00000001	      0.00000000	      0.00000000
      1.87000000	     13.41676106	      3.84626959	      4.89985892	      0.28415461	      0.93134892	     -0.24492926	    -23.91767689	      6.08024888	    -21.59413808	      1.29304904	     -1.47157999	      0.02256796	     19.46415866	     19.74685529	     -7.53240817	     13.66416445	      6.69760963	    -20.18537471	     20.63065142	     -7.83540805	      0.36007279	     13.84331014	     19.98227604	     -7.53240817	    -43.69561203	     -1.39530921	      0.79888276	      5.10671437	    -11.90581657	      5.63599300	     42.16980425	     90.00000001	      0.00000000	      0.00000000	     -3.97234181	    -10.04932236	     14.57636638	     47.41316289	     90.00000001	      0.00000000	      0.00000000
      1.88000000	     13.28835816	      3.56406752	      5.16024928	      0.28998559	      0.92946514	     -0.24550481	    -24.24532580	      6.47404550	    -21.92578262	      1.21556160	     -1.39486979	      0.02121555	     19.84494352	     19.96540949	     -7.53062713	     14.26088216	      6.40852185	    -22.76898221	     19.46754185	     -8.13715242	      0.33977270	     14.21847318	     23.86484376	     -7.53062713	    -43.55362498	     -1.10861188	      0.77631912	      5.09148319	    -11.89967953	      5.68193234	     42.14066975	     90.00000001	      0.00000000	      0.00000000	     -4.10509387	    -10.06775711	     14.71762418	     47.45096838	     90.00000001	      0.00000000	      0.00000000
      1.89000000	     13.04036605	      3.29067806	      5.54562029	      0.29560242	      0.92736458	     -0.24630315	    -24.38693926	      6.97710567	    -22.07143529	      1.15659093	     -1.52140034	      0.02018632	     20.33648037	     19.96152441	     -7.53021688	     14.79493649	      6.40090947	    -24.07693777	     18.16556786	     -8.31580548	      0.31704897	     14.31120618	     25.97557256	     -7.53021688	    -43.31222719	     -0.78336689	      0.63301563	      5.15359441	    -11.84526054	      5.73139712	     41.93095508	     90.00000001	      0.00000000	      0.00000000	     -4.17133351	    -10.10546731	     14.88515080	     47.37835687	     90.00000001	      0.00000000	      0.00000000
